<svg xmlns="http://www.w3.org/2000/svg" viewBox="0 0 16 16" width="16" height="16" shape-rendering="crispEdges"><rect x="5" y="0" width="6" height="1" fill="#ffd94d"/><rect x="3" y="1" width="10" height="1" fill="#ffd94d"/><rect x="2" y="2" width="12" height="1" fill="#ffd94d"/><rect x="1" y="3" width="14" height="1" fill="#ffd94d"/><rect x="1" y="4" width="14" height="1" fill="#ffd94d"/><rect x="0" y="5" width="16" height="1" fill="#ffd94d"/><rect x="0" y="6" width="16" height="1" fill="#ffd94d"/><rect x="0" y="7" width="16" height="1" fill="#ffd94d"/><rect x="0" y="8" width="16" height="1" fill="#ffd94d"/><rect x="0" y="9" width="16" height="1" fill="#ffd94d"/><rect x="1" y="10" width="14" height="1" fill="#ffd94d"/><rect x="1" y="11" width="14" height="1" fill="#f2ae1c"/><rect x="2" y="12" width="12" height="1" fill="#f2ae1c"/><rect x="3" y="13" width="10" height="1" fill="#f2ae1c"/><rect x="5" y="14" width="6" height="1" fill="#f2ae1c"/></svg>
